<svg width="32" height="32" viewBox="0 0 32 32" fill="none" xmlns="http://www.w3.org/2000/svg">
<path d="M13.5933 4L4.5 9.34404L6.88743 11.0093C6.8857 11.0122 6.88398 11.0152 6.88225 11.0181L11.3018 14.0884L11.3376 14.1133L9.48641 14.8861L15.0401 19.0817L12.9712 19.965L26.3658 27.8042L20.1586 19.8548L22.4455 19.4132L18.0896 13.7823L20.0497 13.3407L13.5933 4Z" fill="#757F99"/>
<path d="M5.33707 16.7512C5.33707 15.1811 5.65396 13.6861 6.22636 12.3286L8.33275 13.7919L6.59389 14.5178L12.1663 18.7274L9.74685 19.7603L21.5999 26.6972C20.0537 27.5289 18.2903 28 16.4185 28C10.2984 28 5.33707 22.9637 5.33707 16.7512Z" fill="#757F99"/>
<path d="M27.5 16.7512C27.5 19.415 26.5878 21.8627 25.0632 23.7897L22.7571 20.8363L25.0321 20.397L20.6274 14.7031L22.4838 14.2849L16.2786 5.50318C16.3251 5.50259 16.3718 5.5023 16.4185 5.5023C22.5387 5.5023 27.5 10.5386 27.5 16.7512Z" fill="#757F99"/>
</svg>
